<?xml version="1.0" encoding="utf-8"?><svg xmlns="http://www.w3.org/2000/svg" xmlns:xlink="http://www.w3.org/1999/xlink"><symbol fill="currentColor" class="bi bi-check-circle-fill" viewBox="0 0 16 16" id="check-circle-fill" xmlns="http://www.w3.org/2000/svg"><path d="M16 8A8 8 0 110 8a8 8 0 0116 0zm-3.97-3.03a.75.75 0 00-1.08.022L7.477 9.417 5.384 7.323a.75.75 0 00-1.06 1.06L6.97 11.03a.75.75 0 001.079-.02l3.992-4.99a.75.75 0 00-.01-1.05z"/></symbol><symbol fill="currentColor" class="bi bi-box" viewBox="0 0 16 16" id="box" xmlns="http://www.w3.org/2000/svg"><path d="M8.186 1.113a.5.5 0 00-.372 0L1.846 3.5 8 5.961 14.154 3.5 8.186 1.113zM15 4.239l-6.5 2.6v7.922l6.5-2.6V4.24zM7.5 14.762V6.838L1 4.239v7.923l6.5 2.6zM7.443.184a1.5 1.5 0 011.114 0l7.129 2.852A.5.5 0 0116 3.5v8.662a1 1 0 01-.629.928l-7.185 2.874a.5.5 0 01-.372 0L.63 13.09a1 1 0 01-.63-.928V3.5a.5.5 0 01.314-.464L7.443.184z"/></symbol><symbol fill="currentColor" class="bi bi-check" viewBox="0 0 16 16" id="check" xmlns="http://www.w3.org/2000/svg"><path d="M10.97 4.97a.75.75 0 0 1 1.07 1.05l-3.99 4.99a.75.75 0 0 1-1.08.02L4.324 8.384a.75.75 0 1 1 1.06-1.06l2.094 2.093 3.473-4.425a.267.267 0 0 1 .02-.022z"/></symbol>

  <symbol fill="currentColor" class="bi bi-exclamation-diamond-fill" viewBox="0 0 16 16" id="exclamation-diamond-fill" xmlns="http://www.w3.org/2000/svg"><path d="M9.05.435c-.58-.58-1.52-.58-2.1 0L.436 6.95c-.58.58-.58 1.519 0 2.098l6.516 6.516c.58.58 1.519.58 2.098 0l6.516-6.516c.58-.58.58-1.519 0-2.098L9.05.435zM8 4c.535 0 .954.462.9.995l-.35 3.507a.552.552 0 0 1-1.1 0L7.1 4.995A.905.905 0 0 1 8 4zm.002 6a1 1 0 1 1 0 2 1 1 0 0 1 0-2z"/></symbol>

  <symbol fill="currentColor" class="bi bi-search" viewBox="0 0 16 16" id="search" xmlns="http://www.w3.org/2000/svg"><path d="M11.742 10.344a6.5 6.5 0 1 0-1.397 1.398h-.001c.03.04.062.078.098.115l3.85 3.85a1 1 0 0 0 1.415-1.414l-3.85-3.85a1.007 1.007 0 0 0-.115-.1zM12 6.5a5.5 5.5 0 1 1-11 0 5.5 5.5 0 0 1 11 0z"/></symbol>

</svg>
